<svg width="48" height="48" viewBox="0 0 48 48" fill="none" xmlns="http://www.w3.org/2000/svg">
<rect width="48" height="48" fill="#C3C3C3"/>
<g id="icons&#38;logo">
<path d="M-161 -32C-161 -33.1046 -160.105 -34 -159 -34H446C447.105 -34 448 -33.1046 448 -32V257C448 258.105 447.105 259 446 259H-159C-160.105 259 -161 258.105 -161 257V-32Z" fill="#E1E1E1"/>
<path d="M-159 -33H446V-35H-159V-33ZM447 -32V257H449V-32H447ZM446 258H-159V260H446V258ZM-160 257V-32H-162V257H-160ZM-159 258C-159.552 258 -160 257.552 -160 257H-162C-162 258.657 -160.657 260 -159 260V258ZM447 257C447 257.552 446.552 258 446 258V260C447.657 260 449 258.657 449 257H447ZM446 -33C446.552 -33 447 -32.5523 447 -32H449C449 -33.6569 447.657 -35 446 -35V-33ZM-159 -35C-160.657 -35 -162 -33.6569 -162 -32H-160C-160 -32.5523 -159.552 -33 -159 -33V-35Z" fill="black" fill-opacity="0.1"/>
<g id="links / linkedin">
<rect x="0.5" y="0.5" width="47" height="47" rx="7.5" fill="white"/>
<rect x="0.5" y="0.5" width="47" height="47" rx="7.5" stroke="black"/>
<path id="Vector" d="M11.678 16.2587C11.0381 15.6644 10.7189 14.9292 10.7189 14.0545C10.7189 13.1797 11.0381 12.4113 11.678 11.817C12.3179 11.2228 13.1415 10.9257 14.1518 10.9257C15.162 10.9257 15.9525 11.2228 16.591 11.817C17.2309 12.4113 17.5501 13.1576 17.5501 14.0545C17.5501 14.9514 17.2309 15.6644 16.591 16.2587C15.9512 16.8529 15.1385 17.1501 14.1518 17.1501C13.165 17.1501 12.3179 16.8529 11.678 16.2587ZM17.0111 19.6666V37.8769H11.2578V19.6666H17.0111Z" fill="black"/>
<path id="Vector_2" d="M36.1686 21.4646C37.4221 22.8258 38.0495 24.6956 38.0495 27.0754V37.5563H32.5837V27.8147C32.5837 26.6152 32.2727 25.6824 31.6508 25.0176C31.0289 24.3529 30.1928 24.0212 29.1425 24.0212C28.0922 24.0212 27.256 24.3543 26.6341 25.0176C26.0122 25.6824 25.7012 26.6152 25.7012 27.8147V37.5563H20.2036V19.6169H25.7012V21.9967C26.2582 21.2034 27.0086 20.5774 27.9525 20.1158C28.8951 19.6556 29.9565 19.4248 31.1353 19.4248C33.236 19.4248 34.9137 20.1061 36.1672 21.466L36.1686 21.4646Z" fill="black"/>
</g>
</g>
</svg>
