<svg width="48" height="48" viewBox="0 0 48 48" fill="none" xmlns="http://www.w3.org/2000/svg">
<rect x="0.5" y="0.5" width="47" height="47" rx="7.5" fill="white"/>
<rect x="0.5" y="0.5" width="47" height="47" rx="7.5" stroke="black"/>
<path d="M39.0515 23.5334C38.6479 21.705 36.9771 20.5179 35.3187 20.8841C34.7548 21.0085 34.267 21.3001 33.8814 21.6981C31.6508 20.077 28.6035 19.0074 25.201 18.8043L26.8304 12.0229L31.6619 13.1796C31.742 14.5008 32.8366 15.5469 34.1771 15.5469C35.5177 15.5469 36.7007 14.4179 36.7007 13.0235C36.7007 11.6291 35.5716 10.5 34.1771 10.5C33.1669 10.5 32.299 11.0942 31.8954 11.9511L26.6535 10.6962C26.2416 10.5981 25.827 10.851 25.7275 11.2642L23.924 18.7683C20.129 18.7877 16.7043 19.8863 14.2458 21.6442C14.1255 21.5323 13.9956 21.4272 13.8532 21.3374C12.4215 20.4239 10.4438 20.9629 9.43635 22.5411C8.42886 24.1193 8.77161 26.1398 10.2034 27.0546C10.2877 27.1085 10.3747 27.1569 10.4632 27.2011C10.4065 27.5535 10.3734 27.9114 10.3734 28.2763C10.3734 33.5278 16.486 37.7842 24.0249 37.7842C31.5637 37.7842 37.6764 33.5278 37.6764 28.2763C37.6764 27.9087 37.6432 27.5466 37.5851 27.19C38.7474 26.5143 39.3818 25.0425 39.0487 23.5347L39.0515 23.5334ZM17.0305 26.0734C17.0305 24.8766 18.0007 23.9079 19.1961 23.9079C20.3916 23.9079 21.3617 24.878 21.3617 26.0734C21.3617 27.2688 20.3916 28.239 19.1961 28.239C18.0007 28.239 17.0305 27.2688 17.0305 26.0734ZM29.0637 32.9128C28.3989 33.5181 26.5608 34.9263 23.8687 34.9512C23.8438 34.9512 23.8203 34.9512 23.7954 34.9512C21.0687 34.9512 19.2058 33.5278 18.5272 32.9114C18.3102 32.7138 18.2937 32.378 18.4913 32.1596C18.6889 31.9427 19.0247 31.9261 19.2431 32.1237C19.8346 32.6613 21.4654 33.9092 23.859 33.8857C26.185 33.8636 27.7729 32.6461 28.3492 32.1237C28.5662 31.9261 28.9034 31.9427 29.101 32.1596C29.2986 32.3766 29.282 32.7138 29.0651 32.9114L29.0637 32.9128ZM28.8025 28.239C27.6057 28.239 26.6369 27.2688 26.6369 26.0734C26.6369 24.878 27.607 23.9079 28.8025 23.9079C29.9979 23.9079 30.9681 24.878 30.9681 26.0734C30.9681 27.2688 29.9979 28.239 28.8025 28.239Z" fill="black"/>
</svg>
