<svg width="48" height="48" viewBox="0 0 48 48" fill="none" xmlns="http://www.w3.org/2000/svg">
<rect x="0.5" y="0.5" width="47" height="47" rx="7.5" fill="white"/>
<rect x="0.5" y="0.5" width="47" height="47" rx="7.5" stroke="black"/>
<path d="M35.1984 14.0417C33.1392 13.0964 30.9308 12.3999 28.6215 12.0019C28.58 11.9936 28.5371 12.0129 28.5164 12.0516C28.2317 12.5574 27.918 13.2153 27.6968 13.7335C25.2134 13.3617 22.7424 13.3617 20.31 13.7335C20.0903 13.2042 19.7641 12.5561 19.4781 12.0516C19.4559 12.0143 19.4145 11.995 19.3716 12.0019C17.0637 12.3999 14.8553 13.095 12.7947 14.0417C12.7767 14.05 12.7615 14.0624 12.7518 14.079C8.56294 20.3379 7.41449 26.4421 7.97835 32.4703C7.98111 32.4993 7.99767 32.5283 8.01978 32.5463C10.7838 34.5764 13.4607 35.8077 16.0879 36.6245C16.1294 36.6369 16.1751 36.6217 16.2013 36.5872C16.8232 35.7386 17.3774 34.8431 17.8514 33.902C17.8791 33.8467 17.8514 33.7818 17.7947 33.7596C16.9158 33.4266 16.0797 33.0203 15.274 32.5587C15.2104 32.5214 15.2048 32.4302 15.2643 32.3873C15.4343 32.2602 15.6029 32.1289 15.7646 31.9949C15.7936 31.97 15.8351 31.9658 15.8696 31.981C21.1586 34.3953 26.8829 34.3953 32.1096 31.981C32.1442 31.9645 32.1843 31.97 32.2147 31.9935C32.3764 32.1262 32.5464 32.2602 32.7164 32.3873C32.7744 32.4316 32.7716 32.5214 32.7081 32.5587C31.9037 33.0286 31.0662 33.4266 30.1859 33.7583C30.1292 33.7804 30.103 33.8467 30.1306 33.902C30.6157 34.8417 31.1698 35.7372 31.7793 36.5858C31.8042 36.6217 31.8512 36.6369 31.8927 36.6245C34.5323 35.8077 37.2107 34.575 39.9747 32.5463C39.9996 32.5283 40.0147 32.5021 40.0161 32.4716C40.6905 25.501 38.887 19.4466 35.2385 14.0804C35.2302 14.0624 35.215 14.05 35.197 14.0417H35.1984ZM18.6419 28.7997C17.0498 28.7997 15.7383 27.3376 15.7383 25.5424C15.7383 23.7473 17.025 22.2851 18.6419 22.2851C20.2589 22.2851 21.5718 23.7597 21.5455 25.5424C21.5455 27.3376 20.2589 28.7997 18.6419 28.7997ZM29.3788 28.7997C27.7867 28.7997 26.4752 27.3376 26.4752 25.5424C26.4752 23.7473 27.7619 22.2851 29.3788 22.2851C30.9958 22.2851 32.3086 23.7597 32.2824 25.5424C32.2824 27.3376 31.0082 28.7997 29.3788 28.7997Z" fill="black"/>
</svg>
