<svg width="32" height="32" viewBox="0 0 32 32" fill="none" xmlns="http://www.w3.org/2000/svg">
<circle cx="16" cy="16" r="16" fill="white"/>
<path d="M26 16.24C26 15.5378 25.9384 14.8711 25.8328 14.2222H15.891V18.2311H21.5833C21.3282 19.5467 20.5804 20.6578 19.4718 21.4133V24.08H22.8679C24.8562 22.2222 26 19.4845 26 16.24Z" fill="#4285F4"/>
<path d="M15.8909 26.6666C18.7415 26.6666 21.1258 25.7066 22.8678 24.08L19.4718 21.4133C18.5216 22.0533 17.3162 22.4444 15.8909 22.4444C13.1372 22.4444 10.8057 20.5689 9.96985 18.0355H6.46822V20.7822C8.20144 24.2666 11.7647 26.6666 15.8909 26.6666Z" fill="#34A853"/>
<path d="M9.96987 18.0356C9.74991 17.3956 9.63554 16.7111 9.63554 16C9.63554 15.2889 9.75871 14.6044 9.96987 13.9644V11.2178H6.46823C5.74679 12.6578 5.33328 14.2756 5.33328 16C5.33328 17.7244 5.74679 19.3422 6.46823 20.7822L9.96987 18.0356Z" fill="#FBBC05"/>
<path d="M15.8909 9.55554C17.4482 9.55554 18.8383 10.0978 19.9381 11.1555L22.947 8.11554C21.1258 6.39109 18.7415 5.33331 15.8909 5.33331C11.7647 5.33331 8.20144 7.73331 6.46822 11.2178L9.96985 13.9644C10.8057 11.4311 13.1372 9.55554 15.8909 9.55554Z" fill="#EA4335"/>
</svg>
