<svg width="48" height="48" viewBox="0 0 48 48" fill="none" xmlns="http://www.w3.org/2000/svg">
<rect width="48" height="48" fill="#C3C3C3"/>
<g id="icons&#38;logo">
<path d="M-229 -32C-229 -33.1046 -228.105 -34 -227 -34H378C379.105 -34 380 -33.1046 380 -32V257C380 258.105 379.105 259 378 259H-227C-228.105 259 -229 258.105 -229 257V-32Z" fill="#E1E1E1"/>
<path d="M-227 -33H378V-35H-227V-33ZM379 -32V257H381V-32H379ZM378 258H-227V260H378V258ZM-228 257V-32H-230V257H-228ZM-227 258C-227.552 258 -228 257.552 -228 257H-230C-230 258.657 -228.657 260 -227 260V258ZM379 257C379 257.552 378.552 258 378 258V260C379.657 260 381 258.657 381 257H379ZM378 -33C378.552 -33 379 -32.5523 379 -32H381C381 -33.6569 379.657 -35 378 -35V-33ZM-227 -35C-228.657 -35 -230 -33.6569 -230 -32H-228C-228 -32.5523 -227.552 -33 -227 -33V-35Z" fill="black" fill-opacity="0.1"/>
<g id="links / twitter">
<rect x="0.5" y="0.5" width="47" height="47" rx="7.5" fill="white"/>
<rect x="0.5" y="0.5" width="47" height="47" rx="7.5" stroke="black"/>
<path id="Vector" d="M38.1863 15.2086C37.5202 15.8816 36.5969 16.2976 35.5742 16.2976C35.4443 16.2976 35.3145 16.2906 35.1887 16.2768C36.2556 15.637 37.0793 14.635 37.4898 13.4396C37.4898 13.4396 37.4911 13.4396 37.4911 13.4383C37.5478 13.2779 37.5961 13.1163 37.6348 12.949C36.7904 13.8515 35.6364 14.4623 34.3415 14.6074C34.1425 14.6309 33.9407 14.6419 33.7362 14.6419C33.6712 14.6419 33.609 14.6406 33.5468 14.6364C33.1087 14.1762 32.5864 13.7962 32.0073 13.517C31.3619 13.2019 30.6405 13.0168 29.879 12.9933C29.8168 12.9891 29.7546 12.9877 29.6897 12.9877C29.0443 12.9877 28.4251 13.1024 27.853 13.3139C27.7065 13.3678 27.5641 13.4258 27.4246 13.4935C25.6114 14.3434 24.3565 16.1856 24.3565 18.3208C24.3565 18.7588 24.4104 19.1845 24.5085 19.5908C23.9529 19.5687 23.4029 19.5148 22.8639 19.4346C22.6912 19.407 22.5184 19.378 22.347 19.3448C20.9719 19.0891 19.6604 18.6497 18.4415 18.0527C17.3511 17.5192 16.3339 16.8614 15.4094 16.0958C14.6313 15.4545 13.9196 14.7387 13.2838 13.9565C13.2562 13.9233 13.2285 13.8888 13.2023 13.8556C13.1649 13.9123 13.1304 13.9689 13.1 14.0284C12.655 14.8064 12.4035 15.7061 12.4035 16.6652C12.4035 16.6942 12.4034 16.726 12.4048 16.755C12.4159 17.4736 12.5679 18.1577 12.8401 18.7796C12.9562 19.056 13.0972 19.3172 13.2589 19.5645C13.7357 20.2984 14.3866 20.9092 15.155 21.3321C15.1896 21.3542 15.2255 21.3721 15.2614 21.3887C15.2062 21.3998 15.1495 21.4095 15.0929 21.415C14.9353 21.4357 14.7722 21.4468 14.6092 21.4468C13.791 21.4468 13.0295 21.1911 12.4062 20.7558C12.4021 20.8014 12.4021 20.8484 12.4021 20.8954C12.4021 22.4183 13.0406 23.792 14.0632 24.7607C14.8593 25.5208 15.8889 26.0308 17.0332 26.18C16.6214 26.3307 16.1763 26.4122 15.7134 26.4122C15.2117 26.4122 14.7307 26.3168 14.2913 26.1413C14.9463 28.2709 16.8992 29.8326 19.2265 29.9017C17.8044 31.379 15.8073 32.2966 13.5975 32.2966C12.2238 32.2966 10.933 31.9415 9.81355 31.3196C12.5043 33.6482 16.0132 35.055 19.8511 35.055C28.3325 35.055 35.2067 28.1811 35.2067 19.7C35.2067 19.2329 35.1859 18.7713 35.1445 18.3152C36.5472 17.7611 37.6597 16.6292 38.1863 15.2099V15.2086Z" fill="black"/>
</g>
</g>
</svg>
